# xmcd
#
# Track frame offsets:
#	150
#	17440
#	27490
#	37615
#	48915
#	59865
#	71465
#	84375
#	98065
#	107765
#	118165
#	131215
#	144065
#	158065
#	165640
#	176540
#	190840
#	202965
#	215065
#	225337
#	245037
#	260465
#
# Disc length: 3594 seconds
#
# Revision: 0
# Processed by: cddbd v1.5.1PL2 Copyright (c) Steve Scherf et al.
# Submitted via: audiograbber 1.82.02
#
DISCID=2a0e0816
DTITLE=Various Artist - Wanted Country Legends
DYEAR=1991
DGENRE=Country
TTITLE0=Tom T. Hall - Old Dogs, Children and Watermelon Wine
TTITLE1=Connie Smith - Once A Day
TTITLE2=Barbara Mandrelll - Release Me
TTITLE3=Billy Joe Royal - Your Cheatin' Heart
TTITLE4=Jeanne Pruett - Star Studded Nights
TTITLE5=Bobby Bare - Please Don't TTell Me How The Story Ends
TTITLE6=Freddy Fender - But I Do
TTITLE7=Barabara Fairchild - The Biggest Hurt
TTITLE8=Leroy Van Dyke - Walk On By
TTITLE9=Mel Street - Today I Started Loving You Again
TTITLE10=Pattie Page - Born To Lose
TTITLE11=The Oak Ridge Boys - The Old Country Church
TTITLE12=Sandy Posey - Dream Lover
TTITLE13=Stonewalll Jackson - Mary Dont You Weep
TTITLE14=Charlie Rich - On My Knees
TTITLE15=Tommy Overstreet - Heaven Is My Womans Love
TTITLE16=Stella Parton - Young Love
TTITLE17=Johnny Paycheck - Take This Job And Shove It
TTITLE18=Bobby G Rice - Sugar Shack
TTITLE19=Ferlin Husky - Just A Closer Walk With Thee
TTITLE20=Clarence Carter - You Dont Have To Say You Love Me
TTITLE21=Howt Axton - Hush Hush Sweet Charlottte
EXTD=
EXTT0=
EXTT1=
EXTT2=
EXTT3=
EXTT4=
EXTT5=
EXTT6=
EXTT7=
EXTT8=
EXTT9=
EXTT10=
EXTT11=
EXTT12=
EXTT13=
EXTT14=
EXTT15=
EXTT16=
EXTT17=
EXTT18=
EXTT19=
EXTT20=
EXTT21=
PLAYORDER=
